<svg xmlns="http://www.w3.org/2000/svg" xmlns:xlink="http://www.w3.org/1999/xlink" id="processonSvg1000" viewBox="221.85714721679688 79.41177368164062 681.0 536.1344299316406" width="681.0" height="536.1344299316406"><defs id="ProcessOnDefs1001"><marker id="ProcessOnMarker1055" markerUnits="userSpaceOnUse" orient="auto" markerWidth="16.23606797749979" markerHeight="10.550836550532098" viewBox="-1.0 -1.3763819204711736 16.23606797749979 10.550836550532098" refX="-1.0" refY="3.8990363547948754"><path id="ProcessOnPath1056" d="M12.0 3.8990363547948754L0.0 7.798072709589751V0.0Z" stroke="#323232" stroke-width="2.0" fill="#323232" transform="matrix(1.0,0.0,0.0,1.0,0.0,0.0)"/></marker><marker id="ProcessOnMarker1059" markerUnits="userSpaceOnUse" orient="auto" markerWidth="16.23606797749979" markerHeight="10.550836550532098" viewBox="-1.0 -1.3763819204711736 16.23606797749979 10.550836550532098" refX="-1.0" refY="3.8990363547948754"><path id="ProcessOnPath1060" d="M12.0 3.8990363547948754L0.0 7.798072709589751V0.0Z" stroke="#323232" stroke-width="2.0" fill="#323232" transform="matrix(1.0,0.0,0.0,1.0,0.0,0.0)"/></marker><marker id="ProcessOnMarker1063" markerUnits="userSpaceOnUse" orient="auto" markerWidth="16.23606797749979" markerHeight="10.550836550532098" viewBox="-1.0 -1.3763819204711736 16.23606797749979 10.550836550532098" refX="-1.0" refY="3.8990363547948754"><path id="ProcessOnPath1064" d="M12.0 3.8990363547948754L0.0 7.798072709589751V0.0Z" stroke="#323232" stroke-width="2.0" fill="#323232" transform="matrix(1.0,0.0,0.0,1.0,0.0,0.0)"/></marker><marker id="ProcessOnMarker1067" markerUnits="userSpaceOnUse" orient="auto" markerWidth="16.23606797749979" markerHeight="10.550836550532098" viewBox="-1.0 -1.3763819204711736 16.23606797749979 10.550836550532098" refX="-1.0" refY="3.8990363547948754"><path id="ProcessOnPath1068" d="M12.0 3.8990363547948754L0.0 7.798072709589751V0.0Z" stroke="#323232" stroke-width="2.0" fill="#323232" transform="matrix(1.0,0.0,0.0,1.0,0.0,0.0)"/></marker><marker id="ProcessOnMarker1071" markerUnits="userSpaceOnUse" orient="auto" markerWidth="16.23606797749979" markerHeight="10.550836550532098" viewBox="-1.0 -1.3763819204711736 16.23606797749979 10.550836550532098" refX="-1.0" refY="3.8990363547948754"><path id="ProcessOnPath1072" d="M12.0 3.8990363547948754L0.0 7.798072709589751V0.0Z" stroke="#323232" stroke-width="2.0" fill="#323232" transform="matrix(1.0,0.0,0.0,1.0,0.0,0.0)"/></marker><marker id="ProcessOnMarker1075" markerUnits="userSpaceOnUse" orient="auto" markerWidth="16.23606797749979" markerHeight="10.550836550532098" viewBox="-1.0 -1.3763819204711736 16.23606797749979 10.550836550532098" refX="-1.0" refY="3.8990363547948754"><path id="ProcessOnPath1076" d="M12.0 3.8990363547948754L0.0 7.798072709589751V0.0Z" stroke="#323232" stroke-width="2.0" fill="#323232" transform="matrix(1.0,0.0,0.0,1.0,0.0,0.0)"/></marker><marker id="ProcessOnMarker1079" markerUnits="userSpaceOnUse" orient="auto" markerWidth="16.23606797749979" markerHeight="10.550836550532098" viewBox="-1.0 -1.3763819204711736 16.23606797749979 10.550836550532098" refX="-1.0" refY="3.8990363547948754"><path id="ProcessOnPath1080" d="M12.0 3.8990363547948754L0.0 7.798072709589751V0.0Z" stroke="#323232" stroke-width="2.0" fill="#323232" transform="matrix(1.0,0.0,0.0,1.0,0.0,0.0)"/></marker><marker id="ProcessOnMarker1083" markerUnits="userSpaceOnUse" orient="auto" markerWidth="16.23606797749979" markerHeight="10.550836550532098" viewBox="-1.0 -1.3763819204711736 16.23606797749979 10.550836550532098" refX="-1.0" refY="3.8990363547948754"><path id="ProcessOnPath1084" d="M12.0 3.8990363547948754L0.0 7.798072709589751V0.0Z" stroke="#323232" stroke-width="2.0" fill="#323232" transform="matrix(1.0,0.0,0.0,1.0,0.0,0.0)"/></marker><marker id="ProcessOnMarker1087" markerUnits="userSpaceOnUse" orient="auto" markerWidth="16.23606797749979" markerHeight="10.550836550532098" viewBox="-1.0 -1.3763819204711736 16.23606797749979 10.550836550532098" refX="-1.0" refY="3.8990363547948754"><path id="ProcessOnPath1088" d="M12.0 3.8990363547948754L0.0 7.798072709589751V0.0Z" stroke="#323232" stroke-width="2.0" fill="#323232" transform="matrix(1.0,0.0,0.0,1.0,0.0,0.0)"/></marker><marker id="ProcessOnMarker1097" markerUnits="userSpaceOnUse" orient="auto" markerWidth="16.23606797749979" markerHeight="10.550836550532098" viewBox="-1.0 -1.3763819204711736 16.23606797749979 10.550836550532098" refX="-1.0" refY="3.8990363547948754"><path id="ProcessOnPath1098" d="M12.0 3.8990363547948754L0.0 7.798072709589751V0.0Z" stroke="#323232" stroke-width="2.0" fill="#323232" transform="matrix(1.0,0.0,0.0,1.0,0.0,0.0)"/></marker><marker id="ProcessOnMarker1107" markerUnits="userSpaceOnUse" orient="auto" markerWidth="16.23606797749979" markerHeight="10.550836550532098" viewBox="-1.0 -1.3763819204711736 16.23606797749979 10.550836550532098" refX="-1.0" refY="3.8990363547948754"><path id="ProcessOnPath1108" d="M12.0 3.8990363547948754L0.0 7.798072709589751V0.0Z" stroke="#323232" stroke-width="2.0" fill="#323232" transform="matrix(1.0,0.0,0.0,1.0,0.0,0.0)"/></marker><marker id="ProcessOnMarker1117" markerUnits="userSpaceOnUse" orient="auto" markerWidth="16.23606797749979" markerHeight="10.550836550532098" viewBox="-1.0 -1.3763819204711736 16.23606797749979 10.550836550532098" refX="-1.0" refY="3.8990363547948754"><path id="ProcessOnPath1118" d="M12.0 3.8990363547948754L0.0 7.798072709589751V0.0Z" stroke="#323232" stroke-width="2.0" fill="#323232" transform="matrix(1.0,0.0,0.0,1.0,0.0,0.0)"/></marker></defs><g id="ProcessOnG1002"><path id="ProcessOnPath1003" d="M221.85714721679688 79.41177368164062H902.8571472167969V615.5462036132812H221.85714721679688V79.41177368164062Z" fill="none"/><g id="ProcessOnG1004"><g id="ProcessOnG1005" transform="matrix(1.0,0.0,0.0,1.0,515.8571472167969,99.41177368164062)" opacity="1.0"><path id="ProcessOnPath1006" d="M0.0 0.0L100.0 0.0L100.0 43.45378112792969L0.0 43.45378112792969Z" stroke="#323232" stroke-width="2.0" stroke-dasharray="none" opacity="1.0" fill="#ffffff"/><g id="ProcessOnG1007" transform="matrix(1.0,0.0,0.0,1.0,10.0,13.601890563964844)"><text id="ProcessOnText1008" fill="#000000" font-size="13" x="39.0" y="13.325" font-family="微软雅黑" font-weight="normal" font-style="normal" text-decoration="none" family="微软雅黑" text-anchor="middle" size="13">林业监测系统</text></g></g><g id="ProcessOnG1009" transform="matrix(1.0,0.0,0.0,1.0,515.8571472167969,189.41177368164062)" opacity="1.0"><path id="ProcessOnPath1010" d="M0.0 0.0L100.0 0.0L100.0 44.45378112792969L0.0 44.45378112792969Z" stroke="#323232" stroke-width="2.0" stroke-dasharray="none" opacity="1.0" fill="#ffffff"/><g id="ProcessOnG1011" transform="matrix(1.0,0.0,0.0,1.0,10.0,14.101890563964844)"><text id="ProcessOnText1012" fill="#000000" font-size="13" x="39.0" y="13.325" font-family="微软雅黑" font-weight="normal" font-style="normal" text-decoration="none" family="微软雅黑" text-anchor="middle" size="13">首页</text></g></g><g id="ProcessOnG1013" transform="matrix(1.0,0.0,0.0,1.0,241.85714721679693,292.86555480957037)" opacity="1.0"><path id="ProcessOnPath1014" d="M0.0 0.0L100.0 0.0L100.0 70.0L0.0 70.0Z" stroke="#323232" stroke-width="2.0" stroke-dasharray="none" opacity="1.0" fill="#ffffff"/><g id="ProcessOnG1015" transform="matrix(1.0,0.0,0.0,1.0,10.0,18.75)"><text id="ProcessOnText1016" fill="#000000" font-size="13" x="39.0" y="13.325" font-family="微软雅黑" font-weight="normal" font-style="normal" text-decoration="none" family="微软雅黑" text-anchor="middle" size="13">展示监测点</text><text id="ProcessOnText1017" fill="#000000" font-size="13" x="39.0" y="29.575" font-family="微软雅黑" font-weight="normal" font-style="normal" text-decoration="none" family="微软雅黑" text-anchor="middle" size="13">界面</text></g></g><g id="ProcessOnG1018" transform="matrix(1.0,0.0,0.0,1.0,415.8571472167969,289.86555480957026)" opacity="1.0"><path id="ProcessOnPath1019" d="M0.0 0.0L100.0 0.0L100.0 70.0L0.0 70.0Z" stroke="#323232" stroke-width="2.0" stroke-dasharray="none" opacity="1.0" fill="#ffffff"/><g id="ProcessOnG1020" transform="matrix(1.0,0.0,0.0,1.0,10.0,26.875)"><text id="ProcessOnText1021" fill="#000000" font-size="13" x="39.0" y="13.325" font-family="微软雅黑" font-weight="normal" font-style="normal" text-decoration="none" family="微软雅黑" text-anchor="middle" size="13">清除缓存</text></g></g><g id="ProcessOnG1022" transform="matrix(1.0,0.0,0.0,1.0,615.8571472167969,292.8655548095703)" opacity="1.0"><path id="ProcessOnPath1023" d="M0.0 0.0L100.0 0.0L100.0 70.0L0.0 70.0Z" stroke="#323232" stroke-width="2.0" stroke-dasharray="none" opacity="1.0" fill="#ffffff"/><g id="ProcessOnG1024" transform="matrix(1.0,0.0,0.0,1.0,10.0,26.875)"><text id="ProcessOnText1025" fill="#000000" font-size="13" x="39.0" y="13.325" font-family="微软雅黑" font-weight="normal" font-style="normal" text-decoration="none" family="微软雅黑" text-anchor="middle" size="13">下载离线地图</text></g></g><g id="ProcessOnG1026" transform="matrix(1.0,0.0,0.0,1.0,782.8571472167969,292.86555480957026)" opacity="1.0"><path id="ProcessOnPath1027" d="M0.0 0.0L100.0 0.0L100.0 70.0L0.0 70.0Z" stroke="#323232" stroke-width="2.0" stroke-dasharray="none" opacity="1.0" fill="#ffffff"/><g id="ProcessOnG1028" transform="matrix(1.0,0.0,0.0,1.0,10.0,18.75)"><text id="ProcessOnText1029" fill="#000000" font-size="13" x="39.0" y="13.325" font-family="微软雅黑" font-weight="normal" font-style="normal" text-decoration="none" family="微软雅黑" text-anchor="middle" size="13">远程遥控</text><text id="ProcessOnText1030" fill="#000000" font-size="13" x="39.0" y="29.575" font-family="微软雅黑" font-weight="normal" font-style="normal" text-decoration="none" family="微软雅黑" text-anchor="middle" size="13">摄像头移动</text></g></g><g id="ProcessOnG1031" transform="matrix(1.0,0.0,0.0,1.0,415.8571472167969,411.8655548095703)" opacity="1.0"><path id="ProcessOnPath1032" d="M0.0 0.0L100.0 0.0L100.0 70.0L0.0 70.0Z" stroke="#323232" stroke-width="2.0" stroke-dasharray="none" opacity="1.0" fill="#ffffff"/><g id="ProcessOnG1033" transform="matrix(1.0,0.0,0.0,1.0,10.0,18.75)"><text id="ProcessOnText1034" fill="#000000" font-size="13" x="39.0" y="13.325" font-family="微软雅黑" font-weight="normal" font-style="normal" text-decoration="none" family="微软雅黑" text-anchor="middle" size="13">清除应用目录</text><text id="ProcessOnText1035" fill="#000000" font-size="13" x="39.0" y="29.575" font-family="微软雅黑" font-weight="normal" font-style="normal" text-decoration="none" family="微软雅黑" text-anchor="middle" size="13">下的所有文件</text></g></g><g id="ProcessOnG1036" transform="matrix(1.0,0.0,0.0,1.0,241.85714721679688,411.8655548095703)" opacity="1.0"><path id="ProcessOnPath1037" d="M0.0 0.0L100.0 0.0L100.0 70.0L0.0 70.0Z" stroke="#323232" stroke-width="2.0" stroke-dasharray="none" opacity="1.0" fill="#ffffff"/><g id="ProcessOnG1038" transform="matrix(1.0,0.0,0.0,1.0,10.0,10.625)"><text id="ProcessOnText1039" fill="#000000" font-size="13" x="39.0" y="13.325" font-family="微软雅黑" font-weight="normal" font-style="normal" text-decoration="none" family="微软雅黑" text-anchor="middle" size="13">点击刷新按钮</text><text id="ProcessOnText1040" fill="#000000" font-size="13" x="39.0" y="29.575" font-family="微软雅黑" font-weight="normal" font-style="normal" text-decoration="none" family="微软雅黑" text-anchor="middle" size="13">获取监测点</text><text id="ProcessOnText1041" fill="#000000" font-size="13" x="39.0" y="45.825" font-family="微软雅黑" font-weight="normal" font-style="normal" text-decoration="none" family="微软雅黑" text-anchor="middle" size="13">信息</text></g></g><g id="ProcessOnG1042" transform="matrix(1.0,0.0,0.0,1.0,615.8571472167969,411.8655548095703)" opacity="1.0"><path id="ProcessOnPath1043" d="M0.0 0.0L100.0 0.0L100.0 70.0L0.0 70.0Z" stroke="#323232" stroke-width="2.0" stroke-dasharray="none" opacity="1.0" fill="#ffffff"/><g id="ProcessOnG1044" transform="matrix(1.0,0.0,0.0,1.0,10.0,18.75)"><text id="ProcessOnText1045" fill="#000000" font-size="13" x="39.0" y="13.325" font-family="微软雅黑" font-weight="normal" font-style="normal" text-decoration="none" family="微软雅黑" text-anchor="middle" size="13">展示已下载和</text><text id="ProcessOnText1046" fill="#000000" font-size="13" x="39.0" y="29.575" font-family="微软雅黑" font-weight="normal" font-style="normal" text-decoration="none" family="微软雅黑" text-anchor="middle" size="13">可下载地图</text></g></g><g id="ProcessOnG1047" transform="matrix(1.0,0.0,0.0,1.0,782.8571472167969,411.8655548095703)" opacity="1.0"><path id="ProcessOnPath1048" d="M0.0 0.0L100.0 0.0L100.0 70.0L0.0 70.0Z" stroke="#323232" stroke-width="2.0" stroke-dasharray="none" opacity="1.0" fill="#ffffff"/><g id="ProcessOnG1049" transform="matrix(1.0,0.0,0.0,1.0,10.0,10.625)"><text id="ProcessOnText1050" fill="#000000" font-size="13" x="39.0" y="13.325" font-family="微软雅黑" font-weight="normal" font-style="normal" text-decoration="none" family="微软雅黑" text-anchor="middle" size="13">上下左右移动</text><text id="ProcessOnText1051" fill="#000000" font-size="13" x="39.0" y="29.575" font-family="微软雅黑" font-weight="normal" font-style="normal" text-decoration="none" family="微软雅黑" text-anchor="middle" size="13">及移动角度</text><text id="ProcessOnText1052" fill="#000000" font-size="13" x="39.0" y="45.825" font-family="微软雅黑" font-weight="normal" font-style="normal" text-decoration="none" family="微软雅黑" text-anchor="middle" size="13">控制</text></g></g><g id="ProcessOnG1053"><path id="ProcessOnPath1054" d="M565.8571472167969 142.8655548095703L565.8571472167969 166.13866424560547L565.8571472167969 166.13866424560547L565.8571472167969 174.17570570414082" stroke="#323232" stroke-width="2.0" stroke-dasharray="none" fill="none" marker-end="url(#ProcessOnMarker1055)"/></g><g id="ProcessOnG1057"><path id="ProcessOnPath1058" d="M565.8571472167969 233.8655548095703L565.8571472167969 259.8655548095703L465.8571472167969 259.8655548095703L465.8571472167969 274.6294868320705" stroke="#323232" stroke-width="2.0" stroke-dasharray="none" fill="none" marker-end="url(#ProcessOnMarker1059)"/></g><g id="ProcessOnG1061"><path id="ProcessOnPath1062" d="M465.8571472167969 260.0924377441406L291.85714721679693 260.0924377441406L291.85714721679693 277.6294868320706" stroke="#323232" stroke-width="2.0" stroke-dasharray="none" fill="none" marker-end="url(#ProcessOnMarker1063)"/></g><g id="ProcessOnG1065"><path id="ProcessOnPath1066" d="M565.7207547701322 260.3684557401217L665.8571472167969 260.3684557401217L665.8571472167969 277.62948683207054" stroke="#323232" stroke-width="2.0" stroke-dasharray="none" fill="none" marker-end="url(#ProcessOnMarker1067)"/></g><g id="ProcessOnG1069"><path id="ProcessOnPath1070" d="M665.4369812011719 260.4789924621582L832.8571472167969 260.4789924621582L832.8571472167969 277.6294868320705" stroke="#323232" stroke-width="2.0" stroke-dasharray="none" fill="none" marker-end="url(#ProcessOnMarker1071)"/></g><g id="ProcessOnG1073"><path id="ProcessOnPath1074" d="M465.8571472167969 359.86555480957026L465.8571472167969 385.8655548095703L465.8571472167969 385.8655548095703L465.8571472167969 396.62948683207054" stroke="#323232" stroke-width="2.0" stroke-dasharray="none" fill="none" marker-end="url(#ProcessOnMarker1075)"/></g><g id="ProcessOnG1077"><path id="ProcessOnPath1078" d="M665.8571472167969 362.8655548095703L665.8571472167969 387.3655548095703L665.8571472167969 387.3655548095703L665.8571472167969 396.62948683207054" stroke="#323232" stroke-width="2.0" stroke-dasharray="none" fill="none" marker-end="url(#ProcessOnMarker1079)"/></g><g id="ProcessOnG1081"><path id="ProcessOnPath1082" d="M832.8571472167969 362.86555480957026L832.8571472167969 387.3655548095703L832.8571472167969 387.3655548095703L832.8571472167969 396.62948683207054" stroke="#323232" stroke-width="2.0" stroke-dasharray="none" fill="none" marker-end="url(#ProcessOnMarker1083)"/></g><g id="ProcessOnG1085"><path id="ProcessOnPath1086" d="M291.85714721679693 362.86555480957037L291.85714721679693 387.3655548095703L291.8571472167969 387.3655548095703L291.8571472167969 396.62948683207054" stroke="#323232" stroke-width="2.0" stroke-dasharray="none" fill="none" marker-end="url(#ProcessOnMarker1087)"/></g><g id="ProcessOnG1089" transform="matrix(1.0,0.0,0.0,1.0,241.85714721679688,525.5462036132812)" opacity="1.0"><path id="ProcessOnPath1090" d="M0.0 0.0L100.0 0.0L100.0 70.0L0.0 70.0Z" stroke="#323232" stroke-width="2.0" stroke-dasharray="none" opacity="1.0" fill="#ffffff"/><g id="ProcessOnG1091" transform="matrix(1.0,0.0,0.0,1.0,10.0,10.625)"><text id="ProcessOnText1092" fill="#000000" font-size="13" x="39.0" y="13.325" font-family="微软雅黑" font-weight="normal" font-style="normal" text-decoration="none" family="微软雅黑" text-anchor="middle" size="13">监测点根据经</text><text id="ProcessOnText1093" fill="#000000" font-size="13" x="39.0" y="29.575" font-family="微软雅黑" font-weight="normal" font-style="normal" text-decoration="none" family="微软雅黑" text-anchor="middle" size="13">纬度展示</text><text id="ProcessOnText1094" fill="#000000" font-size="13" x="39.0" y="45.825" font-family="微软雅黑" font-weight="normal" font-style="normal" text-decoration="none" family="微软雅黑" text-anchor="middle" size="13">在地图上</text></g></g><g id="ProcessOnG1095"><path id="ProcessOnPath1096" d="M291.8571472167969 481.8655548095703L291.8571472167969 503.7058792114258L291.8571472167969 503.7058792114258L291.8571472167969 510.3101356357815" stroke="#323232" stroke-width="2.0" stroke-dasharray="none" fill="none" marker-end="url(#ProcessOnMarker1097)"/></g><g id="ProcessOnG1099" transform="matrix(1.0,0.0,0.0,1.0,415.8571472167969,525.5462036132812)" opacity="1.0"><path id="ProcessOnPath1100" d="M0.0 0.0L100.0 0.0L100.0 70.0L0.0 70.0Z" stroke="#323232" stroke-width="2.0" stroke-dasharray="none" opacity="1.0" fill="#ffffff"/><g id="ProcessOnG1101" transform="matrix(1.0,0.0,0.0,1.0,10.0,10.625)"><text id="ProcessOnText1102" fill="#000000" font-size="13" x="39.0" y="13.325" font-family="微软雅黑" font-weight="normal" font-style="normal" text-decoration="none" family="微软雅黑" text-anchor="middle" size="13">点按监测点弹</text><text id="ProcessOnText1103" fill="#000000" font-size="13" x="39.0" y="29.575" font-family="微软雅黑" font-weight="normal" font-style="normal" text-decoration="none" family="微软雅黑" text-anchor="middle" size="13">出文本框显示</text><text id="ProcessOnText1104" fill="#000000" font-size="13" x="39.0" y="45.825" font-family="微软雅黑" font-weight="normal" font-style="normal" text-decoration="none" family="微软雅黑" text-anchor="middle" size="13">温湿度等信息</text></g></g><g id="ProcessOnG1105"><path id="ProcessOnPath1106" d="M341.8571472167969 560.5462036132812L378.8571472167969 560.5462036132812L378.8571472167969 560.5462036132812L400.6210792392971 560.5462036132812" stroke="#323232" stroke-width="2.0" stroke-dasharray="none" fill="none" marker-end="url(#ProcessOnMarker1107)"/></g><g id="ProcessOnG1109" transform="matrix(1.0,0.0,0.0,1.0,615.8571472167969,525.5462036132812)" opacity="1.0"><path id="ProcessOnPath1110" d="M0.0 0.0L100.0 0.0L100.0 70.0L0.0 70.0Z" stroke="#323232" stroke-width="2.0" stroke-dasharray="none" opacity="1.0" fill="#ffffff"/><g id="ProcessOnG1111" transform="matrix(1.0,0.0,0.0,1.0,10.0,10.625)"><text id="ProcessOnText1112" fill="#000000" font-size="13" x="39.0" y="13.325" font-family="微软雅黑" font-weight="normal" font-style="normal" text-decoration="none" family="微软雅黑" text-anchor="middle" size="13">点按信息文本</text><text id="ProcessOnText1113" fill="#000000" font-size="13" x="39.0" y="29.575" font-family="微软雅黑" font-weight="normal" font-style="normal" text-decoration="none" family="微软雅黑" text-anchor="middle" size="13">框展示监测点</text><text id="ProcessOnText1114" fill="#000000" font-size="13" x="39.0" y="45.825" font-family="微软雅黑" font-weight="normal" font-style="normal" text-decoration="none" family="微软雅黑" text-anchor="middle" size="13">图片</text></g></g><g id="ProcessOnG1115"><path id="ProcessOnPath1116" d="M515.8571472167969 560.5462036132812L565.8571472167969 560.5462036132812L565.8571472167969 560.5462036132812L600.621079239297 560.5462036132812" stroke="#323232" stroke-width="2.0" stroke-dasharray="none" fill="none" marker-end="url(#ProcessOnMarker1117)"/></g></g></g></svg>